<mxfile host="Electron" modified="2024-05-01T12:22:41.347Z" agent="Mozilla/5.0 (Windows NT 10.0; Win64; x64) AppleWebKit/537.36 (KHTML, like Gecko) draw.io/24.2.5 Chrome/120.0.6099.109 Electron/28.1.0 Safari/537.36" etag="k9uzNPvxuchCBb7x99_6" version="24.2.5" type="device">
  <diagram name="Page-1" id="dTZeE9LsE5OUL-t4RdB3">
    <mxGraphModel dx="848" dy="457" grid="1" gridSize="10" guides="1" tooltips="1" connect="1" arrows="1" fold="1" page="1" pageScale="1" pageWidth="850" pageHeight="1100" math="0" shadow="0">
      <root>
        <mxCell id="0" />
        <mxCell id="1" parent="0" />
        <mxCell id="D-XkS9cyG45zPRz-74g6-6" value="&lt;p style=&quot;text-align: center; margin: 4px 0px 0px;&quot;&gt;&lt;span style=&quot;background-color: initial; text-align: left;&quot;&gt;&lt;b&gt;DeltaSugárzás&lt;/b&gt;&lt;/span&gt;&lt;br&gt;&lt;/p&gt;&lt;hr size=&quot;1&quot; style=&quot;border-style:solid;&quot;&gt;&amp;nbsp;&amp;nbsp;&lt;hr size=&quot;1&quot; style=&quot;border-style:solid;&quot;&gt;&lt;div style=&quot;height: 2px;&quot;&gt;&lt;div style=&quot;height: 2px;&quot;&gt;&lt;br&gt;&lt;/div&gt;&lt;div style=&quot;height: 2px;&quot;&gt;&lt;br&gt;&lt;/div&gt;&lt;div style=&quot;height: 2px;&quot;&gt;&lt;span style=&quot;background-color: initial;&quot;&gt;&amp;nbsp;+ változik(növény : Puffancs) {override}&lt;/span&gt;&lt;br&gt;&lt;/div&gt;&lt;div style=&quot;height: 2px;&quot;&gt;&lt;div style=&quot;height: 2px;&quot;&gt;&lt;div style=&quot;height: 2px;&quot;&gt;&lt;div style=&quot;height: 2px;&quot;&gt;&lt;span style=&quot;background-color: initial;&quot;&gt;&lt;br&gt;&lt;/span&gt;&lt;/div&gt;&lt;div style=&quot;height: 2px;&quot;&gt;&lt;span style=&quot;background-color: initial;&quot;&gt;&lt;br&gt;&lt;/span&gt;&lt;/div&gt;&lt;div style=&quot;height: 2px;&quot;&gt;&lt;span style=&quot;background-color: initial;&quot;&gt;&lt;br&gt;&lt;/span&gt;&lt;/div&gt;&lt;div style=&quot;height: 2px;&quot;&gt;&lt;span style=&quot;background-color: initial;&quot;&gt;&lt;br&gt;&lt;/span&gt;&lt;/div&gt;&lt;div style=&quot;height: 2px;&quot;&gt;&lt;span style=&quot;background-color: initial;&quot;&gt;&lt;br&gt;&lt;/span&gt;&lt;/div&gt;&lt;div style=&quot;height: 2px;&quot;&gt;&lt;span style=&quot;background-color: initial;&quot;&gt;&amp;nbsp;&lt;/span&gt;&lt;/div&gt;&lt;div style=&quot;height: 2px;&quot;&gt;&lt;span style=&quot;background-color: initial;&quot;&gt;&amp;nbsp;+ változik(növény : Deltafa) {override}&lt;/span&gt;&lt;/div&gt;&lt;div style=&quot;height: 2px;&quot;&gt;&lt;span style=&quot;background-color: initial;&quot;&gt;&lt;br&gt;&lt;/span&gt;&lt;/div&gt;&lt;div style=&quot;height: 2px;&quot;&gt;&lt;span style=&quot;background-color: initial;&quot;&gt;&lt;br&gt;&lt;/span&gt;&lt;/div&gt;&lt;div style=&quot;height: 2px;&quot;&gt;&lt;span style=&quot;background-color: initial;&quot;&gt;&lt;br&gt;&lt;/span&gt;&lt;/div&gt;&lt;div style=&quot;height: 2px;&quot;&gt;&lt;span style=&quot;background-color: initial;&quot;&gt;&lt;br&gt;&lt;/span&gt;&lt;/div&gt;&lt;div style=&quot;height: 2px;&quot;&gt;&lt;span style=&quot;background-color: initial;&quot;&gt;&lt;br&gt;&lt;/span&gt;&lt;/div&gt;&lt;div style=&quot;height: 2px;&quot;&gt;&amp;nbsp; &amp;nbsp; &amp;nbsp; &amp;nbsp;&lt;/div&gt;&lt;div style=&quot;height: 2px;&quot;&gt;&amp;nbsp;+ változik(növény : Parabokor) {override}&lt;span style=&quot;background-color: initial;&quot;&gt;&lt;br&gt;&lt;/span&gt;&lt;/div&gt;&lt;div style=&quot;height: 2px;&quot;&gt;&lt;span style=&quot;background-color: initial;&quot;&gt;&lt;br&gt;&lt;/span&gt;&lt;/div&gt;&lt;/div&gt;&lt;/div&gt;&lt;/div&gt;&lt;/div&gt;" style="verticalAlign=top;align=left;overflow=fill;html=1;whiteSpace=wrap;fillColor=#eeeeee;strokeColor=#006eff;strokeWidth=2;" parent="1" vertex="1">
          <mxGeometry x="320" y="490" width="230" height="180" as="geometry" />
        </mxCell>
        <mxCell id="D-XkS9cyG45zPRz-74g6-8" value="&lt;p style=&quot;text-align: center; margin: 4px 0px 0px;&quot;&gt;&lt;span style=&quot;background-color: initial; text-align: left;&quot;&gt;&lt;b&gt;NincsSugárzás&lt;/b&gt;&lt;/span&gt;&lt;br&gt;&lt;/p&gt;&lt;hr size=&quot;1&quot; style=&quot;border-style:solid;&quot;&gt;&lt;div&gt;&lt;br&gt;&lt;/div&gt;&lt;hr size=&quot;1&quot; style=&quot;border-style:solid;&quot;&gt;&lt;div style=&quot;height: 2px; font-size: 11px;&quot;&gt;&lt;div style=&quot;height: 2px;&quot;&gt;&lt;div style=&quot;height: 2px;&quot;&gt;&lt;br&gt;&lt;/div&gt;&lt;div style=&quot;height: 2px;&quot;&gt;&lt;br&gt;&lt;/div&gt;&lt;div style=&quot;height: 2px;&quot;&gt;&lt;span style=&quot;background-color: initial;&quot;&gt;&amp;nbsp;+ változik(növény : Puffancs) {override}&lt;/span&gt;&lt;br&gt;&lt;/div&gt;&lt;div style=&quot;height: 2px;&quot;&gt;&lt;span style=&quot;background-color: initial;&quot;&gt;&lt;br&gt;&lt;/span&gt;&lt;/div&gt;&lt;div style=&quot;height: 2px;&quot;&gt;&lt;span style=&quot;background-color: initial;&quot;&gt;&lt;br&gt;&lt;/span&gt;&lt;/div&gt;&lt;div style=&quot;height: 2px;&quot;&gt;&lt;span style=&quot;background-color: initial;&quot;&gt;&lt;br&gt;&lt;/span&gt;&lt;/div&gt;&lt;div style=&quot;height: 2px;&quot;&gt;&lt;span style=&quot;background-color: initial;&quot;&gt;&lt;br&gt;&lt;/span&gt;&lt;/div&gt;&lt;div style=&quot;height: 2px;&quot;&gt;&lt;span style=&quot;background-color: initial;&quot;&gt;&lt;br&gt;&lt;/span&gt;&lt;/div&gt;&lt;div style=&quot;height: 2px;&quot;&gt;&lt;span style=&quot;background-color: initial;&quot;&gt;&amp;nbsp;&lt;/span&gt;&lt;/div&gt;&lt;div style=&quot;height: 2px;&quot;&gt;&lt;span style=&quot;background-color: initial;&quot;&gt;&amp;nbsp;+ változik(növény : Deltafa) {override}&lt;/span&gt;&lt;/div&gt;&lt;div style=&quot;height: 2px;&quot;&gt;&lt;span style=&quot;background-color: initial;&quot;&gt;&lt;br&gt;&lt;/span&gt;&lt;/div&gt;&lt;div style=&quot;height: 2px;&quot;&gt;&lt;span style=&quot;background-color: initial;&quot;&gt;&amp;nbsp;&lt;/span&gt;&lt;/div&gt;&lt;div style=&quot;height: 2px;&quot;&gt;&lt;span style=&quot;background-color: initial;&quot;&gt;&lt;br&gt;&lt;/span&gt;&lt;/div&gt;&lt;div style=&quot;height: 2px;&quot;&gt;&lt;span style=&quot;background-color: initial;&quot;&gt;&lt;br&gt;&lt;/span&gt;&lt;/div&gt;&lt;div style=&quot;height: 2px;&quot;&gt;&lt;span style=&quot;background-color: initial;&quot;&gt;&lt;br&gt;&lt;/span&gt;&lt;/div&gt;&lt;div style=&quot;height: 2px;&quot;&gt;&amp;nbsp; &amp;nbsp; &amp;nbsp; &amp;nbsp;&lt;/div&gt;&lt;div style=&quot;height: 2px;&quot;&gt;&amp;nbsp;+ változik(növény : Parabokor) {override}&lt;span style=&quot;background-color: initial;&quot;&gt;&lt;br&gt;&lt;/span&gt;&lt;/div&gt;&lt;div style=&quot;height: 2px;&quot;&gt;&lt;span style=&quot;background-color: initial;&quot;&gt;&lt;br&gt;&lt;/span&gt;&lt;/div&gt;&lt;div style=&quot;height: 2px;&quot;&gt;&lt;span style=&quot;background-color: initial;&quot;&gt;&lt;br&gt;&lt;/span&gt;&lt;/div&gt;&lt;div style=&quot;height: 2px;&quot;&gt;&lt;span style=&quot;background-color: initial;&quot;&gt;&lt;br&gt;&lt;/span&gt;&lt;/div&gt;&lt;div style=&quot;height: 2px;&quot;&gt;&lt;span style=&quot;background-color: initial;&quot;&gt;&amp;nbsp;&lt;/span&gt;&lt;/div&gt;&lt;div style=&quot;height: 2px;&quot;&gt;&lt;span style=&quot;background-color: initial;&quot;&gt;&lt;br&gt;&lt;/span&gt;&lt;/div&gt;&lt;/div&gt;&lt;/div&gt;" style="verticalAlign=top;align=left;overflow=fill;html=1;whiteSpace=wrap;fillColor=#eeeeee;strokeColor=#006eff;strokeWidth=2;" parent="1" vertex="1">
          <mxGeometry x="60" y="490" width="220" height="180" as="geometry" />
        </mxCell>
        <mxCell id="D-XkS9cyG45zPRz-74g6-10" value="" style="endArrow=none;html=1;rounded=0;dashed=1;" parent="1" source="D-XkS9cyG45zPRz-74g6-1" edge="1">
          <mxGeometry width="50" height="50" relative="1" as="geometry">
            <mxPoint x="331" y="305" as="sourcePoint" />
            <mxPoint x="331" y="295" as="targetPoint" />
            <Array as="points">
              <mxPoint x="331" y="295" />
            </Array>
          </mxGeometry>
        </mxCell>
        <mxCell id="D-XkS9cyG45zPRz-74g6-16" value="&lt;p style=&quot;margin: 4px 0px 0px; text-align: center;&quot;&gt;&lt;span style=&quot;background-color: initial; text-align: left;&quot;&gt;&lt;b&gt;AlfaSugárzás&lt;/b&gt;&lt;/span&gt;&lt;br&gt;&lt;/p&gt;&lt;hr size=&quot;1&quot; style=&quot;border-style:solid;&quot;&gt;&amp;nbsp;&amp;nbsp;&lt;hr size=&quot;1&quot; style=&quot;border-style:solid;&quot;&gt;&lt;div style=&quot;height: 2px;&quot;&gt;&lt;div style=&quot;height: 2px;&quot;&gt;&lt;br&gt;&lt;/div&gt;&lt;div style=&quot;height: 2px;&quot;&gt;&lt;span style=&quot;background-color: initial;&quot;&gt;&amp;nbsp;+ változik(növény : Puffancs) {override}&lt;/span&gt;&lt;br&gt;&lt;/div&gt;&lt;div style=&quot;height: 2px;&quot;&gt;&lt;div style=&quot;height: 2px;&quot;&gt;&lt;div style=&quot;height: 2px;&quot;&gt;&lt;span style=&quot;background-color: initial;&quot;&gt;&lt;br&gt;&lt;/span&gt;&lt;/div&gt;&lt;div style=&quot;height: 2px;&quot;&gt;&lt;span style=&quot;background-color: initial;&quot;&gt;&lt;br&gt;&lt;/span&gt;&lt;/div&gt;&lt;div style=&quot;height: 2px;&quot;&gt;&lt;span style=&quot;background-color: initial;&quot;&gt;&lt;br&gt;&lt;/span&gt;&lt;/div&gt;&lt;div style=&quot;height: 2px;&quot;&gt;&lt;span style=&quot;background-color: initial;&quot;&gt;&lt;br&gt;&lt;/span&gt;&lt;/div&gt;&lt;div style=&quot;height: 2px;&quot;&gt;&lt;span style=&quot;background-color: initial;&quot;&gt;&lt;br&gt;&lt;/span&gt;&lt;/div&gt;&lt;div style=&quot;height: 2px;&quot;&gt;&lt;span style=&quot;background-color: initial;&quot;&gt;&amp;nbsp;&lt;/span&gt;&lt;/div&gt;&lt;div style=&quot;height: 2px;&quot;&gt;&lt;span style=&quot;background-color: initial;&quot;&gt;&amp;nbsp;+ változik(növény : Deltafa) {override}&lt;/span&gt;&lt;/div&gt;&lt;div style=&quot;height: 2px;&quot;&gt;&lt;span style=&quot;background-color: initial;&quot;&gt;&lt;br&gt;&lt;/span&gt;&lt;/div&gt;&lt;div style=&quot;height: 2px;&quot;&gt;&lt;span style=&quot;background-color: initial;&quot;&gt;&lt;br&gt;&lt;/span&gt;&lt;/div&gt;&lt;div style=&quot;height: 2px;&quot;&gt;&lt;span style=&quot;background-color: initial;&quot;&gt;&lt;br&gt;&lt;/span&gt;&lt;/div&gt;&lt;div style=&quot;height: 2px;&quot;&gt;&lt;span style=&quot;background-color: initial;&quot;&gt;&lt;br&gt;&lt;/span&gt;&lt;/div&gt;&lt;div style=&quot;height: 2px;&quot;&gt;&lt;span style=&quot;background-color: initial;&quot;&gt;&lt;br&gt;&lt;/span&gt;&lt;/div&gt;&lt;div style=&quot;height: 2px;&quot;&gt;&amp;nbsp; &amp;nbsp; &amp;nbsp; &amp;nbsp;&lt;/div&gt;&lt;div style=&quot;height: 2px;&quot;&gt;&amp;nbsp;+ változik(növény : Parabokor) {override}&lt;span style=&quot;background-color: initial;&quot;&gt;&lt;br&gt;&lt;/span&gt;&lt;/div&gt;&lt;div style=&quot;height: 2px;&quot;&gt;&lt;span style=&quot;background-color: initial;&quot;&gt;&lt;br&gt;&lt;/span&gt;&lt;/div&gt;&lt;/div&gt;&lt;/div&gt;&lt;/div&gt;" style="verticalAlign=top;align=left;overflow=fill;html=1;whiteSpace=wrap;fillColor=#eeeeee;strokeColor=#006eff;strokeWidth=2;" parent="1" vertex="1">
          <mxGeometry x="580" y="490" width="230" height="180" as="geometry" />
        </mxCell>
        <mxCell id="D-XkS9cyG45zPRz-74g6-17" value="" style="endArrow=none;html=1;rounded=0;dashed=1;" parent="1" target="D-XkS9cyG45zPRz-74g6-1" edge="1">
          <mxGeometry width="50" height="50" relative="1" as="geometry">
            <mxPoint x="331" y="305" as="sourcePoint" />
            <mxPoint x="331" y="295" as="targetPoint" />
            <Array as="points" />
          </mxGeometry>
        </mxCell>
        <mxCell id="D-XkS9cyG45zPRz-74g6-1" value="&lt;p style=&quot;margin:0px;margin-top:4px;text-align:center;&quot;&gt;&lt;b style=&quot;background-color: initial;&quot;&gt;&lt;font style=&quot;font-size: 14px;&quot;&gt;Sugárzás&lt;/font&gt;&lt;/b&gt;&lt;br&gt;&lt;/p&gt;&lt;hr size=&quot;1&quot; style=&quot;border-style:solid;&quot;&gt;&amp;nbsp;# alfa_igény : int&amp;nbsp;&lt;div&gt;&amp;nbsp;# delta_igény : int&lt;/div&gt;&lt;div&gt;&lt;div style=&quot;height:2px;&quot;&gt;&lt;font style=&quot;font-size: 12px;&quot;&gt;&amp;nbsp;&lt;/font&gt;&lt;/div&gt;&lt;hr size=&quot;1&quot; style=&quot;border-style:solid;&quot;&gt;&amp;nbsp; + Sugárzás( a : int, d : int)&lt;div style=&quot;height:2px;&quot;&gt;&lt;div style=&quot;height: 2px;&quot;&gt;&amp;nbsp;&amp;nbsp;&lt;/div&gt;&lt;div style=&quot;height: 2px;&quot;&gt;&amp;nbsp; + getAlfaIgény() : int&amp;nbsp;&lt;span style=&quot;background-color: initial;&quot;&gt;&amp;nbsp;&lt;/span&gt;&lt;/div&gt;&lt;div style=&quot;height: 2px;&quot;&gt;&lt;br&gt;&lt;/div&gt;&lt;div style=&quot;height: 2px;&quot;&gt;&lt;br&gt;&lt;/div&gt;&lt;div style=&quot;height: 2px;&quot;&gt;&lt;br&gt;&lt;/div&gt;&lt;div style=&quot;height: 2px;&quot;&gt;&lt;br&gt;&lt;/div&gt;&lt;div style=&quot;height: 2px;&quot;&gt;&lt;br&gt;&lt;/div&gt;&lt;div style=&quot;height: 2px;&quot;&gt;&lt;br&gt;&lt;/div&gt;&lt;div style=&quot;height: 2px;&quot;&gt;&amp;nbsp; + getDeltaIgény() : int&amp;nbsp;&lt;span style=&quot;background-color: initial;&quot;&gt;&amp;nbsp;&lt;/span&gt;&lt;/div&gt;&lt;/div&gt;&lt;/div&gt;&lt;div style=&quot;height:2px;&quot;&gt;&lt;font style=&quot;font-size: 12px;&quot;&gt;&lt;br&gt;&lt;/font&gt;&lt;/div&gt;&lt;div style=&quot;height:2px;&quot;&gt;&lt;font style=&quot;font-size: 12px;&quot;&gt;&lt;br&gt;&lt;/font&gt;&lt;/div&gt;&lt;div style=&quot;height:2px;&quot;&gt;&lt;font style=&quot;font-size: 12px;&quot;&gt;&lt;br&gt;&lt;/font&gt;&lt;/div&gt;&lt;div style=&quot;height:2px;&quot;&gt;&lt;font style=&quot;font-size: 12px;&quot;&gt;&lt;br&gt;&lt;/font&gt;&lt;/div&gt;&lt;div style=&quot;height:2px;&quot;&gt;&lt;br&gt;&lt;/div&gt;&lt;div style=&quot;height:2px;&quot;&gt;&lt;font style=&quot;font-size: 12px;&quot;&gt;&lt;br&gt;&lt;/font&gt;&lt;/div&gt;&lt;div style=&quot;height:2px;&quot;&gt;&lt;font style=&quot;font-size: 12px;&quot;&gt;&lt;br&gt;&lt;/font&gt;&lt;/div&gt;&lt;div style=&quot;height:2px;&quot;&gt;&lt;font style=&quot;font-size: 12px;&quot;&gt;&lt;br&gt;&lt;/font&gt;&lt;/div&gt;&lt;div style=&quot;height:2px;&quot;&gt;&lt;font style=&quot;font-size: 12px;&quot;&gt;&lt;br&gt;&lt;/font&gt;&lt;/div&gt;&lt;div style=&quot;height:2px;&quot;&gt;&lt;font style=&quot;font-size: 12px;&quot;&gt;&lt;br&gt;&lt;/font&gt;&lt;/div&gt;&lt;div style=&quot;height:2px;&quot;&gt;&lt;font style=&quot;font-size: 12px;&quot;&gt;&lt;br&gt;&lt;/font&gt;&lt;/div&gt;&lt;div style=&quot;height:2px;&quot;&gt;&lt;font style=&quot;font-size: 12px;&quot;&gt;&lt;br&gt;&lt;/font&gt;&lt;/div&gt;&lt;div style=&quot;height:2px;&quot;&gt;&lt;span style=&quot;background-color: initial;&quot;&gt;&amp;nbsp; &amp;nbsp;&lt;/span&gt;&lt;/div&gt;&lt;div style=&quot;height:2px;&quot;&gt;&lt;span style=&quot;background-color: initial;&quot;&gt;&amp;nbsp; + változik(növény : Puffancs) {virtual}&lt;/span&gt;&lt;/div&gt;&lt;div style=&quot;height:2px;&quot;&gt;&lt;span style=&quot;background-color: initial;&quot;&gt;&lt;br&gt;&lt;/span&gt;&lt;/div&gt;&lt;div style=&quot;height:2px;&quot;&gt;&lt;span style=&quot;background-color: initial;&quot;&gt;&lt;br&gt;&lt;/span&gt;&lt;/div&gt;&lt;div style=&quot;height:2px;&quot;&gt;&lt;span style=&quot;background-color: initial;&quot;&gt;&lt;br&gt;&lt;/span&gt;&lt;/div&gt;&lt;div style=&quot;height:2px;&quot;&gt;&lt;span style=&quot;background-color: initial;&quot;&gt;&lt;br&gt;&lt;/span&gt;&lt;/div&gt;&lt;div style=&quot;height:2px;&quot;&gt;&lt;span style=&quot;background-color: initial;&quot;&gt;&lt;br&gt;&lt;/span&gt;&lt;/div&gt;&lt;div style=&quot;height:2px;&quot;&gt;&lt;span style=&quot;background-color: initial;&quot;&gt;&lt;br&gt;&lt;/span&gt;&lt;/div&gt;&lt;div style=&quot;height:2px;&quot;&gt;&lt;span style=&quot;background-color: initial;&quot;&gt;&amp;nbsp; + változik(növény : Deltafa)&amp;nbsp;&lt;/span&gt;&lt;span style=&quot;background-color: initial;&quot;&gt;{virtual}&lt;/span&gt;&lt;/div&gt;&lt;div style=&quot;height: 2px;&quot;&gt;&lt;span style=&quot;background-color: initial;&quot;&gt;&lt;br&gt;&lt;/span&gt;&lt;/div&gt;&lt;div style=&quot;height: 2px;&quot;&gt;&lt;span style=&quot;background-color: initial;&quot;&gt;&lt;br&gt;&lt;/span&gt;&lt;/div&gt;&lt;div style=&quot;height:2px;&quot;&gt;&lt;span style=&quot;background-color: initial;&quot;&gt;&amp;nbsp;&lt;/span&gt;&lt;/div&gt;&lt;div style=&quot;height:2px;&quot;&gt;&lt;span style=&quot;background-color: initial;&quot;&gt;&amp;nbsp;&amp;nbsp;&lt;/span&gt;&lt;br&gt;&lt;/div&gt;&lt;div style=&quot;height:2px;&quot;&gt;&lt;br&gt;&lt;/div&gt;&lt;div style=&quot;height:2px;&quot;&gt;&lt;span style=&quot;background-color: initial;&quot;&gt;&lt;br&gt;&lt;/span&gt;&lt;/div&gt;&lt;div style=&quot;height:2px;&quot;&gt;&amp;nbsp; + változik(növény : Parabokor)&amp;nbsp;&lt;span style=&quot;background-color: initial;&quot;&gt;{virtual}&lt;/span&gt;&lt;/div&gt;&lt;div style=&quot;height: 2px;&quot;&gt;&lt;span style=&quot;background-color: initial;&quot;&gt;&lt;br&gt;&lt;/span&gt;&lt;/div&gt;&lt;div style=&quot;height: 2px;&quot;&gt;&lt;span style=&quot;background-color: initial;&quot;&gt;&lt;br&gt;&lt;/span&gt;&lt;/div&gt;&lt;div style=&quot;height:2px;&quot;&gt;&amp;nbsp;&lt;span style=&quot;background-color: initial;&quot;&gt;&lt;br&gt;&lt;/span&gt;&lt;/div&gt;" style="verticalAlign=top;align=left;overflow=fill;html=1;whiteSpace=wrap;fillColor=#bdfbff;strokeColor=#0091ff;strokeWidth=3;perimeterSpacing=0;" parent="1" vertex="1">
          <mxGeometry x="290" y="190" width="270" height="205" as="geometry" />
        </mxCell>
        <mxCell id="D-XkS9cyG45zPRz-74g6-19" style="edgeStyle=elbowEdgeStyle;rounded=0;orthogonalLoop=1;jettySize=auto;html=1;entryX=0.462;entryY=0.996;entryDx=0;entryDy=0;entryPerimeter=0;strokeWidth=3;elbow=vertical;endArrow=block;endFill=1;" parent="1" source="D-XkS9cyG45zPRz-74g6-6" target="D-XkS9cyG45zPRz-74g6-1" edge="1">
          <mxGeometry relative="1" as="geometry">
            <Array as="points">
              <mxPoint x="415" y="442" />
            </Array>
          </mxGeometry>
        </mxCell>
        <mxCell id="D-XkS9cyG45zPRz-74g6-21" style="edgeStyle=orthogonalEdgeStyle;rounded=0;orthogonalLoop=1;jettySize=auto;html=1;strokeWidth=3;entryX=0.463;entryY=0.993;entryDx=0;entryDy=0;entryPerimeter=0;endArrow=block;endFill=1;" parent="1" source="D-XkS9cyG45zPRz-74g6-8" target="D-XkS9cyG45zPRz-74g6-1" edge="1">
          <mxGeometry relative="1" as="geometry">
            <mxPoint x="415" y="400" as="targetPoint" />
            <Array as="points">
              <mxPoint x="150" y="440" />
              <mxPoint x="415" y="440" />
            </Array>
          </mxGeometry>
        </mxCell>
        <mxCell id="D-XkS9cyG45zPRz-74g6-22" style="edgeStyle=orthogonalEdgeStyle;rounded=0;orthogonalLoop=1;jettySize=auto;html=1;strokeWidth=3;endArrow=none;endFill=0;" parent="1" source="D-XkS9cyG45zPRz-74g6-16" edge="1">
          <mxGeometry relative="1" as="geometry">
            <mxPoint x="420" y="440" as="targetPoint" />
            <Array as="points">
              <mxPoint x="685" y="440" />
              <mxPoint x="415" y="440" />
            </Array>
          </mxGeometry>
        </mxCell>
        <mxCell id="D-XkS9cyG45zPRz-74g6-29" style="edgeStyle=orthogonalEdgeStyle;rounded=0;orthogonalLoop=1;jettySize=auto;html=1;dashed=1;dashPattern=1 2;endArrow=oval;endFill=1;entryX=-0.009;entryY=0.368;entryDx=0;entryDy=0;entryPerimeter=0;" parent="1" source="D-XkS9cyG45zPRz-74g6-26" target="D-XkS9cyG45zPRz-74g6-16" edge="1">
          <mxGeometry relative="1" as="geometry">
            <mxPoint x="580" y="625" as="targetPoint" />
            <Array as="points">
              <mxPoint x="560" y="865" />
              <mxPoint x="560" y="556" />
            </Array>
          </mxGeometry>
        </mxCell>
        <mxCell id="D-XkS9cyG45zPRz-74g6-26" value="&lt;div&gt;&lt;span style=&quot;background-color: initial;&quot;&gt;növény.TápmennyiMódosító(2)&lt;/span&gt;&lt;br&gt;&lt;/div&gt;&lt;div&gt;&lt;span style=&quot;background-color: initial; white-space: pre;&quot;&gt;a&lt;/span&gt;&lt;span style=&quot;background-color: initial;&quot;&gt;lfa_igény := alfa_igény + 10&lt;/span&gt;&lt;/div&gt;" style="shape=note;whiteSpace=wrap;html=1;backgroundOutline=1;darkOpacity=0.05;fillColor=#e8c987;strokeColor=#000000;size=14;align=left;fillStyle=auto;gradientColor=#e8ebbc;" parent="1" vertex="1">
          <mxGeometry x="590" y="840" width="180" height="50" as="geometry" />
        </mxCell>
        <mxCell id="D-XkS9cyG45zPRz-74g6-30" style="edgeStyle=orthogonalEdgeStyle;rounded=0;orthogonalLoop=1;jettySize=auto;html=1;entryX=-0.001;entryY=0.389;entryDx=0;entryDy=0;entryPerimeter=0;dashed=1;dashPattern=1 2;endArrow=oval;endFill=1;" parent="1" source="D-XkS9cyG45zPRz-74g6-27" target="D-XkS9cyG45zPRz-74g6-6" edge="1">
          <mxGeometry relative="1" as="geometry">
            <Array as="points">
              <mxPoint x="290" y="865" />
              <mxPoint x="290" y="560" />
            </Array>
          </mxGeometry>
        </mxCell>
        <mxCell id="D-XkS9cyG45zPRz-74g6-27" value="&lt;div&gt;&lt;span style=&quot;background-color: initial;&quot;&gt;növény.TápmennyiMódosító(-2)&lt;/span&gt;&lt;br&gt;&lt;/div&gt;&lt;div&gt;&lt;span style=&quot;white-space: pre;&quot;&gt;a&lt;/span&gt;lfa_igény := alfa_igény + 10&lt;/div&gt;" style="shape=note;whiteSpace=wrap;html=1;backgroundOutline=1;darkOpacity=0.05;fillColor=#e8c987;strokeColor=#000000;size=14;align=left;fillStyle=auto;gradientColor=#e8ebbc;" parent="1" vertex="1">
          <mxGeometry x="300" y="840" width="187.5" height="50" as="geometry" />
        </mxCell>
        <mxCell id="D-XkS9cyG45zPRz-74g6-28" value="&lt;div&gt;&lt;span style=&quot;background-color: initial;&quot;&gt;&lt;br&gt;&lt;/span&gt;&lt;/div&gt;&lt;div&gt;&lt;span style=&quot;background-color: initial;&quot;&gt;növény&lt;/span&gt;&lt;span style=&quot;background-color: initial;&quot;&gt;.TápmennyiMódosító(-1)&lt;/span&gt;&lt;br&gt;&lt;/div&gt;&lt;div&gt;&lt;span style=&quot;white-space: pre;&quot;&gt;a&lt;/span&gt;lfa_igény := alfa_igény + 10&lt;/div&gt;&lt;div&gt;&lt;span style=&quot;background-color: initial;&quot;&gt;&amp;nbsp;&lt;/span&gt;&lt;/div&gt;" style="shape=note;whiteSpace=wrap;html=1;backgroundOutline=1;darkOpacity=0.05;fillColor=#e8c987;strokeColor=#000000;size=14;align=left;fillStyle=auto;gradientColor=#e8ebbc;perimeterSpacing=0;spacing=2;spacingTop=0;spacingBottom=0;" parent="1" vertex="1">
          <mxGeometry x="20" y="850" width="192" height="40" as="geometry" />
        </mxCell>
        <mxCell id="D-XkS9cyG45zPRz-74g6-31" style="edgeStyle=orthogonalEdgeStyle;rounded=0;orthogonalLoop=1;jettySize=auto;html=1;entryX=0;entryY=0.391;entryDx=0;entryDy=0;entryPerimeter=0;endArrow=oval;endFill=1;dashed=1;dashPattern=1 2;" parent="1" source="D-XkS9cyG45zPRz-74g6-28" target="D-XkS9cyG45zPRz-74g6-8" edge="1">
          <mxGeometry relative="1" as="geometry">
            <Array as="points">
              <mxPoint x="10" y="870" />
              <mxPoint x="10" y="560" />
              <mxPoint x="60" y="560" />
            </Array>
          </mxGeometry>
        </mxCell>
        <mxCell id="IGOh2bAyy9SmBO9rKksR-1" value="&lt;div&gt;&lt;br&gt;&lt;/div&gt;&lt;div&gt;&lt;span style=&quot;background-color: initial;&quot;&gt;növény&lt;/span&gt;&lt;span style=&quot;background-color: initial;&quot;&gt;.TápmennyiMódosító(-1)&lt;/span&gt;&lt;/div&gt;&lt;div&gt;&lt;span style=&quot;background-color: initial;&quot;&gt;&amp;nbsp;&lt;/span&gt;&lt;br&gt;&lt;/div&gt;" style="shape=note;whiteSpace=wrap;html=1;backgroundOutline=1;darkOpacity=0.05;fillColor=#e8c987;strokeColor=#000000;size=14;align=left;fillStyle=auto;gradientColor=#e8ebbc;perimeterSpacing=0;spacing=2;spacingTop=0;spacingBottom=0;" parent="1" vertex="1">
          <mxGeometry x="60" y="690" width="180" height="45" as="geometry" />
        </mxCell>
        <mxCell id="IGOh2bAyy9SmBO9rKksR-3" value="&lt;div&gt;&lt;span style=&quot;background-color: initial;&quot;&gt;növény.&lt;/span&gt;&lt;span style=&quot;background-color: initial;&quot;&gt;TápmennyiMódosító(-1)&lt;/span&gt;&lt;br&gt;&lt;/div&gt;&lt;div&gt;&lt;span style=&quot;background-color: initial;&quot;&gt;if növény.getT&lt;/span&gt;ápMennyi&amp;nbsp;&lt;span style=&quot;background-color: initial;&quot;&gt;() ≺ 5 then&lt;/span&gt;&lt;/div&gt;&lt;div&gt;&lt;span style=&quot;white-space: pre;&quot;&gt;&#x9;&lt;/span&gt;&lt;span style=&quot;white-space: pre;&quot;&gt;delta_igény := delta_igény + 4&lt;/span&gt;&lt;/div&gt;&lt;div&gt;else if 5 ≤ növény.getTápMennyi&amp;nbsp;()&amp;nbsp;≤ 10 then&lt;/div&gt;&lt;div&gt;&lt;span style=&quot;white-space: pre;&quot;&gt;&#x9;&lt;/span&gt;&lt;span style=&quot;white-space: pre;&quot;&gt;delta_igény := delta_igény + 1&lt;/span&gt;&lt;/div&gt;&lt;div&gt;endif&lt;/div&gt;" style="shape=note;whiteSpace=wrap;html=1;backgroundOutline=1;darkOpacity=0.05;fillColor=#e8c987;strokeColor=#000000;size=14;align=left;fillStyle=auto;gradientColor=#e8ebbc;perimeterSpacing=0;spacing=2;spacingTop=0;spacingBottom=0;" parent="1" vertex="1">
          <mxGeometry x="30" y="740" width="250" height="100" as="geometry" />
        </mxCell>
        <mxCell id="IGOh2bAyy9SmBO9rKksR-4" style="edgeStyle=orthogonalEdgeStyle;rounded=0;orthogonalLoop=1;jettySize=auto;html=1;entryX=-0.009;entryY=0.552;entryDx=0;entryDy=0;entryPerimeter=0;endArrow=oval;endFill=1;dashed=1;dashPattern=1 2;" parent="1" source="IGOh2bAyy9SmBO9rKksR-1" target="D-XkS9cyG45zPRz-74g6-8" edge="1">
          <mxGeometry relative="1" as="geometry">
            <Array as="points">
              <mxPoint x="40" y="713" />
              <mxPoint x="40" y="589" />
            </Array>
          </mxGeometry>
        </mxCell>
        <mxCell id="IGOh2bAyy9SmBO9rKksR-5" style="edgeStyle=orthogonalEdgeStyle;rounded=0;orthogonalLoop=1;jettySize=auto;html=1;endArrow=oval;endFill=1;dashed=1;dashPattern=1 2;entryX=0;entryY=0.465;entryDx=0;entryDy=0;entryPerimeter=0;" parent="1" source="IGOh2bAyy9SmBO9rKksR-3" target="D-XkS9cyG45zPRz-74g6-8" edge="1">
          <mxGeometry relative="1" as="geometry">
            <mxPoint x="60" y="630" as="targetPoint" />
            <Array as="points">
              <mxPoint x="20" y="790" />
              <mxPoint x="20" y="574" />
              <mxPoint x="60" y="574" />
            </Array>
          </mxGeometry>
        </mxCell>
        <mxCell id="IGOh2bAyy9SmBO9rKksR-6" value="&lt;div&gt;&lt;span style=&quot;background-color: initial;&quot;&gt;növény.TápmennyiMódosító(4)&lt;/span&gt;&lt;br&gt;&lt;/div&gt;&lt;div&gt;&lt;span style=&quot;background-color: initial;&quot;&gt;if&amp;nbsp;&lt;/span&gt;&lt;span style=&quot;background-color: initial;&quot;&gt;0 &amp;lt;&amp;nbsp;&lt;/span&gt;&lt;span style=&quot;background-color: initial;&quot;&gt;növény.getT&lt;/span&gt;&lt;span style=&quot;background-color: initial;&quot;&gt;ápMennyi&amp;nbsp;&lt;/span&gt;&lt;span style=&quot;background-color: initial;&quot;&gt;() ≺ 5 then&lt;/span&gt;&lt;/div&gt;&lt;div&gt;&lt;span style=&quot;white-space: pre;&quot;&gt;&#x9;&lt;/span&gt;&lt;span style=&quot;white-space: pre;&quot;&gt;delta_igény := delta_igény + 4&lt;/span&gt;&lt;/div&gt;&lt;div&gt;else if 5 ≤ növény.getTápMennyi&amp;nbsp;()&amp;nbsp;≤ 10 then&lt;/div&gt;&lt;div&gt;&lt;span style=&quot;white-space: pre;&quot;&gt;&#x9;&lt;/span&gt;&lt;span style=&quot;white-space: pre;&quot;&gt;delta_igény := delta_igény + 1&lt;/span&gt;&lt;/div&gt;&lt;div&gt;endif&lt;/div&gt;" style="shape=note;whiteSpace=wrap;html=1;backgroundOutline=1;darkOpacity=0.05;fillColor=#e8c987;strokeColor=#000000;size=14;align=left;fillStyle=auto;gradientColor=#e8ebbc;" parent="1" vertex="1">
          <mxGeometry x="310" y="730" width="240" height="100" as="geometry" />
        </mxCell>
        <mxCell id="IGOh2bAyy9SmBO9rKksR-7" value="&lt;div&gt;&lt;span style=&quot;background-color: initial;&quot;&gt;&amp;nbsp;&lt;/span&gt;&lt;/div&gt;&lt;div&gt;&lt;span style=&quot;background-color: initial;&quot;&gt;növény.TápmennyiMódosító(1)&lt;/span&gt;&lt;/div&gt;&lt;div&gt;&lt;span style=&quot;background-color: initial;&quot;&gt;&lt;br&gt;&lt;/span&gt;&lt;/div&gt;" style="shape=note;whiteSpace=wrap;html=1;backgroundOutline=1;darkOpacity=0.05;fillColor=#e8c987;strokeColor=#000000;size=14;align=left;fillStyle=auto;gradientColor=#e8ebbc;" parent="1" vertex="1">
          <mxGeometry x="322.5" y="680" width="177.5" height="40" as="geometry" />
        </mxCell>
        <mxCell id="IGOh2bAyy9SmBO9rKksR-8" style="edgeStyle=orthogonalEdgeStyle;rounded=0;orthogonalLoop=1;jettySize=auto;html=1;entryX=-0.007;entryY=0.469;entryDx=0;entryDy=0;entryPerimeter=0;endArrow=oval;endFill=1;dashed=1;dashPattern=1 2;" parent="1" source="IGOh2bAyy9SmBO9rKksR-6" target="D-XkS9cyG45zPRz-74g6-6" edge="1">
          <mxGeometry relative="1" as="geometry">
            <Array as="points">
              <mxPoint x="300" y="780" />
              <mxPoint x="300" y="574" />
              <mxPoint x="318" y="574" />
            </Array>
          </mxGeometry>
        </mxCell>
        <mxCell id="IGOh2bAyy9SmBO9rKksR-9" style="edgeStyle=orthogonalEdgeStyle;rounded=0;orthogonalLoop=1;jettySize=auto;html=1;entryX=-0.001;entryY=0.546;entryDx=0;entryDy=0;entryPerimeter=0;endArrow=oval;endFill=1;dashed=1;dashPattern=1 2;" parent="1" target="D-XkS9cyG45zPRz-74g6-6" edge="1">
          <mxGeometry relative="1" as="geometry">
            <mxPoint x="322" y="700" as="sourcePoint" />
            <mxPoint x="319.34000000000003" y="649.66" as="targetPoint" />
            <Array as="points">
              <mxPoint x="310" y="700" />
              <mxPoint x="310" y="588" />
            </Array>
          </mxGeometry>
        </mxCell>
        <mxCell id="IGOh2bAyy9SmBO9rKksR-10" value="&lt;div&gt;&lt;br&gt;&lt;/div&gt;&lt;div&gt;&lt;span style=&quot;background-color: initial;&quot;&gt;növény.TápmennyiMódosító(-3)&lt;/span&gt;&lt;/div&gt;&lt;div&gt;&lt;span style=&quot;background-color: initial;&quot;&gt;if 0 &amp;lt; növény.getT&lt;/span&gt;&lt;span style=&quot;background-color: initial;&quot;&gt;ápMennyi&amp;nbsp;&lt;/span&gt;&lt;span style=&quot;background-color: initial;&quot;&gt;() ≺ 5 then&lt;/span&gt;&lt;/div&gt;&lt;div&gt;&lt;span style=&quot;white-space: pre;&quot;&gt;&#x9;&lt;/span&gt;&lt;span style=&quot;white-space: pre;&quot;&gt;delta_igény := delta_igény + 4&lt;/span&gt;&lt;/div&gt;&lt;div&gt;else if 5 ≤ növény.getTápMennyi&amp;nbsp;()&amp;nbsp;≤ 10 then&lt;/div&gt;&lt;div&gt;&lt;span style=&quot;white-space: pre;&quot;&gt;&#x9;&lt;/span&gt;&lt;span style=&quot;white-space: pre;&quot;&gt;delta_igény := delta_igény + 1&lt;/span&gt;&lt;/div&gt;&lt;div&gt;endif&lt;/div&gt;&lt;div&gt;&amp;nbsp;&lt;/div&gt;" style="shape=note;whiteSpace=wrap;html=1;backgroundOutline=1;darkOpacity=0.05;fillColor=#e8c987;strokeColor=#000000;size=14;align=left;fillStyle=auto;gradientColor=#e8ebbc;" parent="1" vertex="1">
          <mxGeometry x="590" y="740" width="240" height="90" as="geometry" />
        </mxCell>
        <mxCell id="IGOh2bAyy9SmBO9rKksR-11" value="&lt;div&gt;&lt;br&gt;&lt;/div&gt;&lt;div&gt;&lt;span style=&quot;background-color: initial;&quot;&gt;növény.TápmennyiMódosító(1)&lt;/span&gt;&lt;/div&gt;&lt;div&gt;&lt;span style=&quot;background-color: initial;&quot;&gt;&amp;nbsp;&lt;br&gt;&lt;/span&gt;&lt;/div&gt;" style="shape=note;whiteSpace=wrap;html=1;backgroundOutline=1;darkOpacity=0.05;fillColor=#e8c987;strokeColor=#000000;size=14;align=left;fillStyle=auto;gradientColor=#e8ebbc;" parent="1" vertex="1">
          <mxGeometry x="590" y="685" width="180" height="45" as="geometry" />
        </mxCell>
        <mxCell id="IGOh2bAyy9SmBO9rKksR-13" style="edgeStyle=orthogonalEdgeStyle;rounded=0;orthogonalLoop=1;jettySize=auto;html=1;entryX=-0.001;entryY=0.439;entryDx=0;entryDy=0;entryPerimeter=0;endArrow=oval;endFill=1;dashed=1;dashPattern=1 2;" parent="1" source="IGOh2bAyy9SmBO9rKksR-10" target="D-XkS9cyG45zPRz-74g6-16" edge="1">
          <mxGeometry relative="1" as="geometry">
            <Array as="points">
              <mxPoint x="570" y="785" />
              <mxPoint x="570" y="569" />
            </Array>
          </mxGeometry>
        </mxCell>
        <mxCell id="IGOh2bAyy9SmBO9rKksR-14" style="edgeStyle=orthogonalEdgeStyle;rounded=0;orthogonalLoop=1;jettySize=auto;html=1;entryX=0.096;entryY=0.611;entryDx=0;entryDy=0;entryPerimeter=0;endArrow=oval;endFill=1;dashed=1;dashPattern=1 2;exitX=0.055;exitY=0.008;exitDx=0;exitDy=0;exitPerimeter=0;" parent="1" source="IGOh2bAyy9SmBO9rKksR-11" target="D-XkS9cyG45zPRz-74g6-16" edge="1">
          <mxGeometry relative="1" as="geometry">
            <mxPoint x="700" y="690" as="sourcePoint" />
            <mxPoint x="600" y="654.3" as="targetPoint" />
            <Array as="points" />
          </mxGeometry>
        </mxCell>
      </root>
    </mxGraphModel>
  </diagram>
</mxfile>
